<svg width="410" height="114"
     style="width:410px;height:114px;position:absolute;top:50%;left:50%;transform:translate(-50%,-50%) scale(1);z-index:0;cursor:pointer;overflow:visible">
    <rect xmlns="http://www.w3.org/2000/svg" width="410" height="114" fill="#364f6b" rx="10" ry="10"/>
    <g fill="#fce38a">
        <path xmlns="http://www.w3.org/2000/svg"
              d="M73.745 43.343c-.113 0-.227-.003-.342-.01-3.952-.229-6.939-4.386-6.657-9.267.28-4.877 3.695-8.655 7.675-8.44 3.952.227 6.938 4.383 6.658 9.265-.273 4.739-3.495 8.452-7.334 8.452zm.334-14.685c-2.192 0-4.12 2.505-4.297 5.584-.182 3.153 1.558 5.927 3.797 6.055l.166.004c2.193 0 4.122-2.506 4.299-5.585.181-3.152-1.559-5.925-3.797-6.054l-.168-.004zM29.168 45.37c-4.092 0-7.551-3.563-8.045-8.29-.248-2.37.296-4.694 1.533-6.541 1.297-1.935 3.189-3.124 5.326-3.348 4.385-.462 8.24 3.253 8.761 8.253.25 2.371-.295 4.696-1.534 6.542-1.296 1.935-3.188 3.122-5.325 3.347-.24.025-.48.038-.716.038zM28.7 30.195c-.132 0-.265.008-.399.021-1.226.13-2.334.846-3.116 2.015-.845 1.258-1.211 2.869-1.037 4.534.344 3.287 2.768 5.82 5.422 5.546 1.226-.13 2.333-.845 3.117-2.016.843-1.258 1.21-2.868 1.036-4.533-.33-3.121-2.534-5.567-5.023-5.567zM111.401 51.71a6.907 6.907 0 0 1-1.958-.284c-2.06-.611-3.704-2.127-4.624-4.263-.881-2.042-.991-4.428-.312-6.713 1.186-4.001 4.544-6.797 8.166-6.797.664 0 1.321.096 1.957.286 4.15 1.23 6.365 6.155 4.935 10.976-1.186 4.001-4.543 6.794-8.164 6.794zm1.271-15.016c-2.25 0-4.459 1.943-5.252 4.619-.478 1.605-.409 3.257.189 4.647.559 1.295 1.515 2.2 2.698 2.55.353.106.72.158 1.09.158 2.25 0 4.458-1.942 5.253-4.618.953-3.214-.342-6.441-2.887-7.197a3.807 3.807 0 0 0-1.09-.159z"/>
        <path xmlns="http://www.w3.org/2000/svg"
              d="M117.853 59.454c-2.194-4.186-11.477-8.48-16.118-8.242-3.355.175-11.262 4.435-12.952 7.447-.28.496-.546 1.181-.782 1.988-.486-.07-.996-.122-1.493-.187-.129-2.692-.054-6.325.525-7.407.177-.332.583-.998 1.108-1.865 2.52-4.147 5.027-8.4 5.624-10.807.995-4.026-1.24-13.444-4.651-16.894-1.564-1.583-3.045-1.645-4.01-1.414-3.627.852-2.65 5.862-1.788 10.282.413 2.116.881 4.517.65 5.598-.324 1.524-2.896 5.377-4.301 6.442-1.828 1.389-7.109 1.719-9.863.961-2.108-.58-5.368-5.4-5.822-7.99-.223-1.265.5-3.908 1.139-6.24 1.238-4.536 2.645-9.678-1.055-10.945-.873-.3-2.235-.374-3.771.968-3.783 3.306-6.914 14.434-6.022 18.926.443 2.246 2.037 4.895 3.575 7.456 1.101 1.83 2.238 3.724 2.7 5.1.365 1.092.6 5.014.673 7.472-6.273.609-11.984 1.723-16.833 3.233a1.522 1.522 0 0 0-.085-.562l-1.195-3.364c1.79.805 3.925 1.245 5.855.27 3.052-1.547 7.77-8.698 6.877-12.473-.394-1.662-1.717-2.62-3.632-2.627h-.014c-2.391 0-3.727 2.544-4.907 4.788-.365.695-.89 1.693-1.24 2.111-.823-.342-2.296-1.626-3.31-2.51-1.463-1.276-2.846-2.484-4.154-3.012-3.739-1.506-10.443 0-13.505 2.255-3.717 2.74-5.835 10.055-4.825 16.657.527 3.444 4.968 6.059 9.287 7.241-1.104 1.54-1.704 3.166-1.704 4.858 0 9.756 19.537 17.395 44.477 17.395 24.94 0 44.477-7.639 44.477-17.394 0-.764-.133-1.511-.365-2.245 2.341-3.943 3.21-11.873 1.43-15.27zM38.19 65.696c-1.668-.931-4.07-1.67-6.554-2.428-1.027-.314-2.27-.693-2.801-.914-.117-.738.07-2.648.443-4.442l.049-.243c.18-.819-.34-1.63-1.158-1.81a1.517 1.517 0 0 0-1.811 1.16c-1.386 6.316.01 7.346.469 7.685.603.446 1.699.793 3.923 1.47.966.295 2.616.799 4.049 1.332.631.234 1.219.474 1.688.703.349.171.634.338.819.491-.473.97-2.32 1.085-3.163 1.065-.034 0-.067-.005-.103-.005a13.551 13.551 0 0 1-2.101-.209c-4.1-.704-8.365-3.093-8.68-5.145-.812-5.302.88-11.725 3.621-13.747 2.306-1.696 7.947-2.937 10.564-1.883.833.336 2.14 1.478 3.294 2.483 1.824 1.593 3.547 3.096 5.182 3.313 1.929.263 2.963-1.71 4.059-3.791.454-.865 1.66-3.163 2.215-3.163.618.003.651.147.686.287.487 2.061-3.235 8.018-5.292 9.06-1.948.99-5.36-1.471-6.4-2.408a1.521 1.521 0 0 0-2.452 1.636l2.257 6.348.444 1.253c.062.17.153.32.262.45-1.24.46-2.412.942-3.51 1.452zm21.31 15.663h-4.56v-4.477h4.56v4.477zm6.002-7.524h-4.56V69.36h4.56v4.475zm-1.25-13.987c-.057-1.798-.255-6.48-.825-8.18-.565-1.693-1.735-3.642-2.975-5.703-1.406-2.338-2.859-4.755-3.2-6.48-.695-3.505 2.153-13.522 5.04-16.045.128-.109.562-.457.788-.381 1 .342-.327 5.195-.895 7.269-.792 2.895-1.539 5.633-1.201 7.566.598 3.399 4.423 9.41 8.011 10.397 3.166.87 9.612.728 12.51-1.47 1.813-1.377 4.932-5.866 5.437-8.23.358-1.688-.126-4.178-.64-6.812-.387-1.985-1.192-6.111-.498-6.741.377-.091.834.27 1.148.59 2.59 2.62 4.625 10.952 3.864 14.027-.535 2.158-3.734 7.428-5.271 9.959-.567.933-1.001 1.653-1.191 2.011-1.004 1.879-.996 6.14-.903 8.491a114.307 114.307 0 0 0-11.135-.541c-2.763-.005-5.454.093-8.064.273zm17.607 17.837h-4.56v-4.477h4.56v4.477zm32.742-6.208a10.07 10.07 0 0 1-.68 1.525 4.875 4.875 0 0 1-.573.84 9.629 9.629 0 0 1-.415.435c-2.254 2.206-7.467 5.436-10.31 5.006-.745-.113-1.234-.472-1.572-1.152.452-.729 3.108-1.983 4.56-2.67 2.241-1.06 4.363-2.066 5.48-3.357.14-.163.268-.326.376-.498a6.37 6.37 0 0 0 .418-.824c.19-.44.362-.94.516-1.47.572-1.968.899-4.343.899-5.517 0-.84-.68-1.52-1.52-1.52-.789 0-1.429.602-1.505 1.37-.004.049-.016.099-.016.149 0 .902-.216 2.35-.52 3.659-2.73-1.66-6.166-3.12-10.158-4.316l.35-.523 1.576-2.367a1.517 1.517 0 0 0-1.7-2.298c-1.458.438-4.15 1.478-5.814 3.542-.048.062-.084.132-.126.194a4.105 4.105 0 0 0-.605 1.425 9.223 9.223 0 0 0-.195 1.473 32.984 32.984 0 0 0-.047 2.072c-.003 3.512-.28 4.537-1.229 4.574-.249.01-.516-.023-.83-.539-.83-1.358-.904-4.152-.582-6.615.067-.51.15-1.001.248-1.466.114-.539.244-1.042.391-1.474.129-.387.271-.72.419-.986 1.101-1.956 7.845-5.762 10.46-5.897 3.536-.203 11.656 3.545 13.268 6.618 1.065 2.035.64 7.254-.564 10.607z"/>
    </g>
    <path fill="#fce38a"
          d="M140.941 80.242a.958.958 0 0 1-.941-.94V35.94c0-.507.434-.941.941-.941h9.41c.507 0 .941.434.941.941v12.813l13.103-13.464c.217-.145.434-.29.724-.29h10.93c.362 0 .724.217.869.507.145.362.072.724-.145 1.013l-14.622 15.636 16.287 26.566a.822.822 0 0 1 .217.58.958.958 0 0 1-.941.94h-11.292a.796.796 0 0 1-.724-.434l-11.944-20.196-2.462 2.171v17.518a.958.958 0 0 1-.94.941h-9.411zm56.928 0c-.435 0-.797-.29-.87-.651l-14.042-43.36c-.145-.29-.073-.58.144-.87.145-.216.435-.361.724-.361h10.135c.362 0 .796.29.868.651l7.529 26.132 6.876-24.829a.86.86 0 0 1 .87-.723h9.192c.435 0 .797.29.941.723l6.95 24.83 7.383-26.133a1.03 1.03 0 0 1 .941-.651h9.7c.29 0 .58.145.724.362.217.29.217.579.145.869l-14.116 43.36c-.145.362-.434.651-.869.651h-8.469c-.434 0-.796-.29-.869-.651l-7.238-25.698-7.384 25.698c-.072.362-.434.651-.868.651h-8.397zm57.072 0a.958.958 0 0 1-.941-.94V35.94c0-.507.434-.941.94-.941h9.411c.507 0 .941.434.941.941v43.36a.958.958 0 0 1-.94.941h-9.411zm19.865 0a.958.958 0 0 1-.941-.94v-6.588c0-.217.072-.434.217-.651l19.038-27.001h-17.518a.958.958 0 0 1-.941-.941v-8.18c0-.507.434-.941.941-.941h31.416c.507 0 .941.434.941.941v6.587c0 .145-.072.362-.217.58L288.85 70.18h18.531c.29 0 .507.145.652.29.217.145.29.434.29.651l-.073 8.18c0 .507-.362.941-.941.941h-32.502zm43.029 0a.958.958 0 0 1-.941-.94V35.94c0-.507.434-.941.94-.941h9.411c.507 0 .941.434.941.941v33.877h16.288c.506 0 .94.435.94.942V79.3a.958.958 0 0 1-.94.941h-26.64zm46.648 0c-.506 0-.868-.434-.868-.94V62.072l-15.347-25.698a.89.89 0 0 1 .073-.94c.145-.29.434-.435.796-.435h9.41c.362 0 .652.145.797.507l9.845 16.07 9.627-16.07a.89.89 0 0 1 .796-.507h9.483c.29 0 .652.145.796.434s.145.652 0 .941l-15.056 25.408v17.518a.958.958 0 0 1-.941.941h-9.41z"/>
</svg>