<?xml version="1.0" encoding="UTF-8" standalone="no"?>
<svg
   xml:space="preserve"
   viewBox="0 0 409.75684 186.28443"
   version="1.1"
   id="svg3"
   sodipodi:docname="opt-kiwzly-logo-separate.svg"
   inkscape:version="1.4.3 (0d15f75, 2025-12-25)"
   inkscape:export-filename="kiwzly-logo.svg"
   inkscape:export-xdpi="96"
   inkscape:export-ydpi="96"
   width="409.75684"
   height="186.28444"
   xmlns:inkscape="http://www.inkscape.org/namespaces/inkscape"
   xmlns:sodipodi="http://sodipodi.sourceforge.net/DTD/sodipodi-0.dtd"
   xmlns="http://www.w3.org/2000/svg"
   xmlns:svg="http://www.w3.org/2000/svg"><defs
     id="defs3" /><sodipodi:namedview
     id="namedview3"
     pagecolor="#ffffff"
     bordercolor="#000000"
     borderopacity="0.25"
     inkscape:showpageshadow="2"
     inkscape:pageopacity="0.0"
     inkscape:pagecheckerboard="0"
     inkscape:deskcolor="#d1d1d1"
     inkscape:zoom="2.2921319"
     inkscape:cx="163.16687"
     inkscape:cy="87.909425"
     inkscape:window-width="1728"
     inkscape:window-height="1056"
     inkscape:window-x="0"
     inkscape:window-y="33"
     inkscape:window-maximized="1"
     inkscape:current-layer="svg3" /><path
     d="m 13.747832,145.7744 -0.36735,-47.017585 c -0.49887,-63.85146 -0.53032,-59.19674 0.40923,-60.57722 1.48137,-2.17658 1.84807,-2.29574 13.7438,-4.46612 6.18304,-1.12809 11.76645,-2.05108 12.40757,-2.05108 1.51844,0 3.14796,1.36593 3.60875,3.02501 0.21648,0.77942 0.35206,7.4308 0.35324,17.32949 0.0011,8.83551 0.13425,15.98278 0.296,15.8828 0.32587,-0.20138 5.8351,-7.51191 18.90303,-25.0835 4.77283,-6.41772 9.08542,-12.10743 9.58352,-12.6438 2.03123,-2.18728 2.56848,-2.29265 14.0653,-2.75873 5.7864,-0.23458 10.87191,-0.35971 11.30113,-0.27807 1.78717,0.63413 2.765698,1.87788 2.823128,3.75502 0,1.35799 -0.21521,1.99547 -1.073778,3.1807 -10.41943,13.39651 -20.91583,26.75512 -31.80258,39.77907 -1.02105,1.21323 -2.0103,2.5435 -2.1983,2.95615 -0.30257,0.66406 1.26554,2.8952 13.64557,19.41534 7.69308,10.265785 16.27955,21.727405 19.08103,25.470255 5.028188,6.71778 5.285858,7.19754 5.100358,9.49651 -0.11475,1.4223 -1.30223,2.9844 -2.67309,3.51638 -2.247008,0.87201 -23.080998,4.18928 -24.539118,3.90722 -1.876,-0.36289 -3.01267,-1.52742 -7.79516,-7.98614 -8.46463,-11.4314 -15.0242,-20.28817 -18.7104,-25.26279 -2.3587,-3.18318 -3.97525,-5.06212 -4.35516,-5.06212 -0.33229,0 -0.85973,0.39005 -1.1721,0.86678 -0.51614,0.78773 -0.55598,2.72018 -0.4369,21.19222 0.12784,19.83146 0.11435,20.35378 -0.55536,21.49076 -1.33592,2.26804 -1.80433,2.42828 -12.7772,4.37107 -5.61924,0.9949 -10.83454,1.81619 -11.58957,1.82507 -2.853614,0.0235 -4.15224,-1.91347 -5.27559,-4.27269 z m 99.001248,-14.45676 c -0.60429,-0.29797 -1.32372,-0.88517 -1.59874,-1.30491 -0.27502,-0.41973 -1.37488,-3.76308 -2.44413,-7.42968 -2.71915,-9.32424 -7.5381,-25.371115 -11.329168,-37.725595 -6.52247,-21.25563 -7.11132,-23.35378 -6.88818,-24.54323 0.26356,-1.40493 1.38102,-2.8589 2.53416,-3.29733 1.27396,-0.48435 17.512528,-2.08324 18.640858,-1.83542 0.52467,0.11524 1.38513,0.70268 1.91212,1.30543 1.86987,2.13867 8.78743,37.63679 9.36591,37.63679 0.18309,0 3.36064,-13.03486 7.78049,-31.91704 1.32429,-5.65749 1.58733,-6.30154 2.97825,-7.29195 0.8362,-0.59544 2.10489,-0.8165 7.67498,-1.3373 7.47302,-0.69874 8.52262,-0.55363 9.47086,1.30935 0.68525,1.3463 8.74751,34.93093 9.05335,35.805 0.3461,0.98915 0.75149,-0.79283 3.55241,-15.61532 4.67992,-24.76621 4.41488,-23.78593 6.68785,-24.73564 0.63597,-0.26572 2.97912,-0.64005 5.20702,-0.83183 2.22789,-0.19178 5.56368,-0.50106 7.41287,-0.6873 2.70567,-0.27247 3.58836,-0.24407 4.52062,0.14545 1.46523,0.61221 2.40029,2.02337 2.38748,3.60312 -0.009,1.1293 -16.58821,68.640175 -17.39456,70.831645 -0.19523,0.53057 -0.84031,1.33488 -1.43353,1.78734 -0.95263,0.72662 -1.85066,0.9045 -7.69106,1.52348 -8.77578,0.93008 -10.0135,0.91853 -11.11666,-0.1039 -0.47754,-0.44256 -1.10854,-1.63945 -1.40222,-2.65975 -0.29369,-1.02031 -2.25542,-8.10981 -4.35942,-15.75445 -2.10399,-7.64464 -3.88932,-13.963705 -3.9674,-14.042355 -0.0781,-0.0786 -0.2084,-0.0765 -0.28961,0.005 -0.17493,0.17493 -1.85281,6.579325 -5.83562,22.274355 -2.81668,11.09964 -2.95826,11.53465 -4.09636,12.58633 -1.30905,1.20965 -0.85744,1.11678 -10.53407,2.16635 -7.57732,0.82187 -7.408,0.8193 -8.7985,0.13365 z m 84.04519,-7.32896 c -2.31189,-1.44187 -2.20565,0.51896 -2.07275,-38.258345 l 0.12004,-35.02067 c 2.40252,-4.072857 7.40067,-3.652125 11.63437,-3.77647 9.0858,-0.266852 8.13922,-0.499585 10.88972,1.64817 0.90879,0.709638 0.69996,1.29283 0.52746,36.49668 -0.15472,31.574735 -0.23284,35.512795 -0.72323,36.461135 -2.10467,4.06991 -19.43365,3.03698 -20.37561,2.4495 z m 3.1952,-85.116965 c -6.81473,-2.28484 -10.58042,-9.58144 -8.46035,-16.39322 3.96264,-12.732 22.36831,-12.53705 25.64976,0.27168 1.55814,6.08204 -1.5163,12.64233 -7.24688,15.46349 -2.91163,1.43338 -6.85215,1.69419 -9.94253,0.65805 z"
     style="display:inline;fill:#fcbb03;fill-opacity:1;stroke:#000000;stroke-width:26.0719;stroke-linecap:square;stroke-linejoin:miter;stroke-dasharray:none;stroke-dashoffset:0;stroke-opacity:1;paint-order:markers stroke fill"
     id="path1"
     sodipodi:nodetypes="csssssccssscccccsssssscssssscccsssssssssssssssssscssssssccsssccsscssssssssss"
     inkscape:export-filename="path1.svg"
     inkscape:export-xdpi="96"
     inkscape:export-ydpi="96" /><path
     d="m 291.8847,25.676745 c -14.62126,4.2662 -29.28397,8.39372 -43.87838,12.7497 -3.42354,1.98307 -3.61873,6.6255 -5.26312,9.87585 -3.87851,11.30037 -5.74414,15.20999 -9.13733,26.63155 -0.46443,2.3053 1.51951,3.2905 3.71443,3.20665 3.26732,-0.26909 6.89929,-0.67687 9.92544,-1.04253 -4.73732,11.17944 -10.78251,22.18347 -15.6152,33.432185 -0.71218,1.72001 0.0848,4.54246 2.37395,4.00738 3.97664,-0.21494 7.95913,-0.65841 11.92817,-1.06549 -2.09596,6.99174 -6.02292,14.00076 -9.00353,20.92167 -5.55607,12.28309 -12.15294,24.13592 -17.1366,36.64646 0.10688,3.02308 2.5996,2.65835 4.07688,0.58333 20.60225,-17.17182 39.2671,-36.52123 59.22762,-54.41094 1.69526,-1.68155 3.93759,-3.45139 2.38014,-5.9089 -0.86101,-2.2554 -3.92566,-1.54702 -5.77942,-1.37417 -4.59531,0.77443 -9.38875,1.19493 -14.13698,1.54374 6.53629,-10.92481 22.01287,-29.695485 24.60298,-35.987835 0.78039,-2.20942 -0.9294,-5.02465 -3.45747,-4.13965 -6.36165,0.84656 -12.73402,1.61448 -19.08656,2.52799 1.37656,-4.78944 15.67769,-23.4322 26.82398,-43.16846 0.51586,-2.1682 0.36409,-5.1044 -2.559,-5.02853 z"
     style="display:inline;fill:#fcbb03;fill-opacity:1;stroke:#000000;stroke-width:26.0719;stroke-linecap:square;stroke-linejoin:miter;stroke-dasharray:none;stroke-dashoffset:0;stroke-opacity:1;paint-order:markers stroke fill"
     id="path2" /><path
     d="m 329.44066,168.2165 c -4.35993,-1.40053 -5.52287,-2.79854 -4.99017,-5.99891 0.18113,-1.08848 3.90183,-10.98816 4.50249,-11.97992 0.89751,-1.48187 2.44492,-1.94516 4.85142,-1.45248 1.13123,0.23161 3.36937,0.52222 4.97366,0.64581 2.72382,0.20982 3.03645,0.15927 4.7231,-0.76487 2.5973,-1.42299 5.04081,-4.60796 6.73305,-8.77603 0.66246,-1.63165 0.67123,-1.82926 0.19032,-4.28704 -3.65209,-18.66528 -5.17933,-26.10028 -10.81723,-52.660865 -2.29886,-10.83015 -2.19471,-12.68355 0.77832,-13.84916 1.59563,-0.62559 13.36585,0.13238 15.00871,0.96645 2.01144,1.02128 2.19067,1.5775 4.07108,12.6349 4.38922,25.810155 5.10335,29.838935 5.29242,29.857075 0.11059,0.0101 1.0282,-2.28406 2.03932,-5.09924 8.11983,-22.607525 11.95869,-32.961865 12.4704,-33.635755 1.29498,-1.70538 0.41902,-2.03226 9.35292,-1.48941 13.65539,0.82976 6.89309,12.65623 2.68939,22.30773 -10.35644,20.458905 -16.37106,45.025405 -29.1975,63.711965 -3.81698,4.95351 -8.38578,8.26494 -13.93799,10.1021 -5.44944,1.80314 -11.67807,1.71373 -18.73371,-0.23235 z m -20.80465,-32.78321 c 0,0 -6.06306,-0.26964 -6.17127,-2.81891 -0.0506,-1.19341 -0.40751,-3.5604 0.27305,-21.16421 0.42329,-10.94938 1.22698,-31.760965 1.78596,-46.247985 1.0993,-28.49026 0.99424,-27.47431 2.99739,-28.98822 0.8812,-0.66598 1.32485,-0.6912 9.40605,-0.53492 8.26446,0.15982 8.51064,0.18463 9.63198,0.97049 1.69751,1.18965 1.94539,2.41287 1.65604,8.17252 -0.13731,2.73483 -0.95411,21.71837 -1.81496,42.18565 -0.86083,20.467275 -1.86917,43.413185 -1.94765,45.959605 -0.0902,2.92724 -6.18491,2.69649 -6.18491,2.69649 z"
     style="display:inline;fill:#fcbb03;fill-opacity:1;stroke:#000000;stroke-width:26.0719;stroke-linecap:square;stroke-linejoin:miter;stroke-dasharray:none;stroke-dashoffset:0;stroke-opacity:1;paint-order:markers stroke fill"
     id="path3" /></svg>
